<svg width="100" height="147" viewBox="0 0 100 147" fill="none" xmlns="http://www.w3.org/2000/svg">
<path d="M9.774 15.126C9.774 16.17 9.414 17.04 8.694 17.736C7.986 18.42 6.9 18.762 5.436 18.762H3.024V24H1.386V11.454H5.436C6.852 11.454 7.926 11.796 8.658 12.48C9.402 13.164 9.774 14.046 9.774 15.126ZM5.436 17.412C6.348 17.412 7.02 17.214 7.452 16.818C7.884 16.422 8.1 15.858 8.1 15.126C8.1 13.578 7.212 12.804 5.436 12.804H3.024V17.412H5.436ZM13.4478 15.738C13.7358 15.174 14.1438 14.736 14.6718 14.424C15.2118 14.112 15.8658 13.956 16.6338 13.956V15.648H16.2018C14.3658 15.648 13.4478 16.644 13.4478 18.636V24H11.8098V14.136H13.4478V15.738ZM22.8267 24.162C21.9027 24.162 21.0627 23.952 20.3067 23.532C19.5627 23.112 18.9747 22.518 18.5427 21.75C18.1227 20.97 17.9127 20.07 17.9127 19.05C17.9127 18.042 18.1287 17.154 18.5607 16.386C19.0047 15.606 19.6047 15.012 20.3607 14.604C21.1167 14.184 21.9627 13.974 22.8987 13.974C23.8347 13.974 24.6807 14.184 25.4367 14.604C26.1927 15.012 26.7867 15.6 27.2187 16.368C27.6627 17.136 27.8847 18.03 27.8847 19.05C27.8847 20.07 27.6567 20.97 27.2007 21.75C26.7567 22.518 26.1507 23.112 25.3827 23.532C24.6147 23.952 23.7627 24.162 22.8267 24.162ZM22.8267 22.722C23.4147 22.722 23.9667 22.584 24.4827 22.308C24.9987 22.032 25.4127 21.618 25.7247 21.066C26.0487 20.514 26.2107 19.842 26.2107 19.05C26.2107 18.258 26.0547 17.586 25.7427 17.034C25.4307 16.482 25.0227 16.074 24.5187 15.81C24.0147 15.534 23.4687 15.396 22.8807 15.396C22.2807 15.396 21.7287 15.534 21.2247 15.81C20.7327 16.074 20.3367 16.482 20.0367 17.034C19.7367 17.586 19.5867 18.258 19.5867 19.05C19.5867 19.854 19.7307 20.532 20.0187 21.084C20.3187 21.636 20.7147 22.05 21.2067 22.326C21.6987 22.59 22.2387 22.722 22.8267 22.722ZM29.4263 19.032C29.4263 18.024 29.6303 17.142 30.0383 16.386C30.4463 15.618 31.0043 15.024 31.7123 14.604C32.4323 14.184 33.2363 13.974 34.1243 13.974C34.8923 13.974 35.6063 14.154 36.2663 14.514C36.9263 14.862 37.4303 15.324 37.7783 15.9V10.68H39.4343V24H37.7783V22.146C37.4543 22.734 36.9743 23.22 36.3383 23.604C35.7023 23.976 34.9583 24.162 34.1063 24.162C33.2303 24.162 32.4323 23.946 31.7123 23.514C31.0043 23.082 30.4463 22.476 30.0383 21.696C29.6303 20.916 29.4263 20.028 29.4263 19.032ZM37.7783 19.05C37.7783 18.306 37.6283 17.658 37.3283 17.106C37.0283 16.554 36.6203 16.134 36.1043 15.846C35.6003 15.546 35.0423 15.396 34.4303 15.396C33.8183 15.396 33.2603 15.54 32.7563 15.828C32.2523 16.116 31.8503 16.536 31.5503 17.088C31.2503 17.64 31.1003 18.288 31.1003 19.032C31.1003 19.788 31.2503 20.448 31.5503 21.012C31.8503 21.564 32.2523 21.99 32.7563 22.29C33.2603 22.578 33.8183 22.722 34.4303 22.722C35.0423 22.722 35.6003 22.578 36.1043 22.29C36.6203 21.99 37.0283 21.564 37.3283 21.012C37.6283 20.448 37.7783 19.794 37.7783 19.05ZM50.9504 14.136V24H49.3124V22.542C49.0004 23.046 48.5624 23.442 47.9984 23.73C47.4464 24.006 46.8344 24.144 46.1624 24.144C45.3944 24.144 44.7044 23.988 44.0924 23.676C43.4804 23.352 42.9944 22.872 42.6344 22.236C42.2864 21.6 42.1124 20.826 42.1124 19.914V14.136H43.7324V19.698C43.7324 20.67 43.9784 21.42 44.4704 21.948C44.9624 22.464 45.6344 22.722 46.4864 22.722C47.3624 22.722 48.0524 22.452 48.5564 21.912C49.0604 21.372 49.3124 20.586 49.3124 19.554V14.136H50.9504ZM53.1041 19.05C53.1041 18.03 53.3081 17.142 53.7161 16.386C54.1241 15.618 54.6881 15.024 55.4081 14.604C56.1401 14.184 56.9741 13.974 57.9101 13.974C59.1221 13.974 60.1181 14.268 60.8981 14.856C61.6901 15.444 62.2121 16.26 62.4641 17.304H60.7001C60.5321 16.704 60.2021 16.23 59.7101 15.882C59.2301 15.534 58.6301 15.36 57.9101 15.36C56.9741 15.36 56.2181 15.684 55.6421 16.332C55.0661 16.968 54.7781 17.874 54.7781 19.05C54.7781 20.238 55.0661 21.156 55.6421 21.804C56.2181 22.452 56.9741 22.776 57.9101 22.776C58.6301 22.776 59.2301 22.608 59.7101 22.272C60.1901 21.936 60.5201 21.456 60.7001 20.832H62.4641C62.2001 21.84 61.6721 22.65 60.8801 23.262C60.0881 23.862 59.0981 24.162 57.9101 24.162C56.9741 24.162 56.1401 23.952 55.4081 23.532C54.6881 23.112 54.1241 22.518 53.7161 21.75C53.3081 20.982 53.1041 20.082 53.1041 19.05ZM66.6477 15.486V21.3C66.6477 21.78 66.7497 22.122 66.9537 22.326C67.1577 22.518 67.5117 22.614 68.0157 22.614H69.2217V24H67.7457C66.8337 24 66.1497 23.79 65.6937 23.37C65.2377 22.95 65.0097 22.26 65.0097 21.3V15.486H63.7317V14.136H65.0097V11.652H66.6477V14.136H69.2217V15.486H66.6477Z" fill="#564E4E"/>
<path d="M2.352 128.242V138H1.078V128.242H2.352ZM7.56131 128.242C8.62531 128.242 9.54465 128.443 10.3193 128.844C11.1033 129.236 11.7006 129.801 12.1113 130.538C12.5313 131.275 12.7413 132.143 12.7413 133.142C12.7413 134.141 12.5313 135.009 12.1113 135.746C11.7006 136.474 11.1033 137.034 10.3193 137.426C9.54465 137.809 8.62531 138 7.56131 138H4.52331V128.242H7.56131ZM7.56131 136.95C8.82131 136.95 9.78265 136.619 10.4453 135.956C11.108 135.284 11.4393 134.346 11.4393 133.142C11.4393 131.929 11.1033 130.981 10.4313 130.3C9.76865 129.619 8.81198 129.278 7.56131 129.278H5.79731V136.95H7.56131ZM19.5598 138L17.2358 134.01H15.6958V138H14.4218V128.242H17.5718C18.3091 128.242 18.9298 128.368 19.4338 128.62C19.9471 128.872 20.3298 129.213 20.5818 129.642C20.8338 130.071 20.9598 130.561 20.9598 131.112C20.9598 131.784 20.7638 132.377 20.3718 132.89C19.9891 133.403 19.4104 133.744 18.6358 133.912L21.0858 138H19.5598ZM15.6958 132.988H17.5718C18.2624 132.988 18.7804 132.82 19.1258 132.484C19.4711 132.139 19.6438 131.681 19.6438 131.112C19.6438 130.533 19.4711 130.085 19.1258 129.768C18.7898 129.451 18.2718 129.292 17.5718 129.292H15.6958V132.988ZM32.6918 128.872L28.7998 138H27.5118L31.4598 128.998H26.0557V127.906H32.6918V128.872ZM35.7423 135.284C35.8357 135.816 36.0503 136.227 36.3863 136.516C36.7317 136.805 37.1937 136.95 37.7723 136.95C38.547 136.95 39.1163 136.647 39.4803 136.04C39.8537 135.433 40.031 134.411 40.0123 132.974C39.8163 133.394 39.4897 133.725 39.0323 133.968C38.575 134.201 38.0663 134.318 37.5063 134.318C36.881 134.318 36.321 134.192 35.8263 133.94C35.341 133.679 34.9583 133.301 34.6783 132.806C34.3983 132.311 34.2583 131.714 34.2583 131.014C34.2583 130.015 34.5477 129.213 35.1263 128.606C35.705 127.99 36.5263 127.682 37.5903 127.682C38.897 127.682 39.8117 128.107 40.3343 128.956C40.8663 129.805 41.1323 131.07 41.1323 132.75C41.1323 133.926 41.025 134.897 40.8103 135.662C40.605 136.427 40.2503 137.011 39.7463 137.412C39.2517 137.813 38.5703 138.014 37.7023 138.014C36.7503 138.014 36.0083 137.757 35.4763 137.244C34.9443 136.731 34.641 136.077 34.5663 135.284H35.7423ZM37.7163 133.24C38.3417 133.24 38.855 133.049 39.2563 132.666C39.6577 132.274 39.8583 131.747 39.8583 131.084C39.8583 130.384 39.6623 129.819 39.2703 129.39C38.8783 128.961 38.3277 128.746 37.6183 128.746C36.965 128.746 36.4423 128.951 36.0503 129.362C35.6677 129.773 35.4763 130.314 35.4763 130.986C35.4763 131.667 35.6677 132.213 36.0503 132.624C36.433 133.035 36.9883 133.24 37.7163 133.24ZM49.3767 128.984H44.4627V132.176C44.6774 131.877 44.9947 131.635 45.4147 131.448C45.8347 131.252 46.2874 131.154 46.7727 131.154C47.5474 131.154 48.1774 131.317 48.6627 131.644C49.148 131.961 49.4934 132.377 49.6987 132.89C49.9134 133.394 50.0207 133.931 50.0207 134.5C50.0207 135.172 49.8947 135.774 49.6427 136.306C49.3907 136.838 49.0034 137.258 48.4807 137.566C47.9674 137.874 47.328 138.028 46.5627 138.028C45.5827 138.028 44.7894 137.776 44.1827 137.272C43.576 136.768 43.2074 136.096 43.0767 135.256H44.3227C44.444 135.788 44.7007 136.203 45.0927 136.502C45.4847 136.801 45.9794 136.95 46.5767 136.95C47.314 136.95 47.8694 136.731 48.2427 136.292C48.616 135.844 48.8027 135.256 48.8027 134.528C48.8027 133.8 48.616 133.24 48.2427 132.848C47.8694 132.447 47.3187 132.246 46.5907 132.246C46.096 132.246 45.662 132.367 45.2887 132.61C44.9247 132.843 44.6587 133.165 44.4907 133.576H43.2867V127.864H49.3767V128.984ZM52.3297 138.084C52.087 138.084 51.8817 138 51.7137 137.832C51.5457 137.664 51.4617 137.459 51.4617 137.216C51.4617 136.973 51.5457 136.768 51.7137 136.6C51.8817 136.432 52.087 136.348 52.3297 136.348C52.563 136.348 52.759 136.432 52.9177 136.6C53.0857 136.768 53.1697 136.973 53.1697 137.216C53.1697 137.459 53.0857 137.664 52.9177 137.832C52.759 138 52.563 138.084 52.3297 138.084ZM54.6532 132.834C54.6532 131.229 54.9145 129.978 55.4372 129.082C55.9598 128.177 56.8745 127.724 58.1812 127.724C59.4785 127.724 60.3885 128.177 60.9112 129.082C61.4338 129.978 61.6952 131.229 61.6952 132.834C61.6952 134.467 61.4338 135.737 60.9112 136.642C60.3885 137.547 59.4785 138 58.1812 138C56.8745 138 55.9598 137.547 55.4372 136.642C54.9145 135.737 54.6532 134.467 54.6532 132.834ZM60.4352 132.834C60.4352 132.022 60.3792 131.336 60.2672 130.776C60.1645 130.207 59.9452 129.749 59.6092 129.404C59.2825 129.059 58.8065 128.886 58.1812 128.886C57.5465 128.886 57.0612 129.059 56.7252 129.404C56.3985 129.749 56.1792 130.207 56.0672 130.776C55.9645 131.336 55.9132 132.022 55.9132 132.834C55.9132 133.674 55.9645 134.379 56.0672 134.948C56.1792 135.517 56.3985 135.975 56.7252 136.32C57.0612 136.665 57.5465 136.838 58.1812 136.838C58.8065 136.838 59.2825 136.665 59.6092 136.32C59.9452 135.975 60.1645 135.517 60.2672 134.948C60.3792 134.379 60.4352 133.674 60.4352 132.834ZM63.4442 132.834C63.4442 131.229 63.7055 129.978 64.2282 129.082C64.7508 128.177 65.6655 127.724 66.9722 127.724C68.2695 127.724 69.1795 128.177 69.7022 129.082C70.2248 129.978 70.4862 131.229 70.4862 132.834C70.4862 134.467 70.2248 135.737 69.7022 136.642C69.1795 137.547 68.2695 138 66.9722 138C65.6655 138 64.7508 137.547 64.2282 136.642C63.7055 135.737 63.4442 134.467 63.4442 132.834ZM69.2262 132.834C69.2262 132.022 69.1702 131.336 69.0582 130.776C68.9555 130.207 68.7362 129.749 68.4002 129.404C68.0735 129.059 67.5975 128.886 66.9722 128.886C66.3375 128.886 65.8522 129.059 65.5162 129.404C65.1895 129.749 64.9702 130.207 64.8582 130.776C64.7555 131.336 64.7042 132.022 64.7042 132.834C64.7042 133.674 64.7555 134.379 64.8582 134.948C64.9702 135.517 65.1895 135.975 65.5162 136.32C65.8522 136.665 66.3375 136.838 66.9722 136.838C67.5975 136.838 68.0735 136.665 68.4002 136.32C68.7362 135.975 68.9555 135.517 69.0582 134.948C69.1702 134.379 69.2262 133.674 69.2262 132.834ZM72.2352 132.834C72.2352 131.229 72.4965 129.978 73.0192 129.082C73.5419 128.177 74.4565 127.724 75.7632 127.724C77.0605 127.724 77.9705 128.177 78.4932 129.082C79.0159 129.978 79.2772 131.229 79.2772 132.834C79.2772 134.467 79.0159 135.737 78.4932 136.642C77.9705 137.547 77.0605 138 75.7632 138C74.4565 138 73.5419 137.547 73.0192 136.642C72.4965 135.737 72.2352 134.467 72.2352 132.834ZM78.0172 132.834C78.0172 132.022 77.9612 131.336 77.8492 130.776C77.7465 130.207 77.5272 129.749 77.1912 129.404C76.8645 129.059 76.3885 128.886 75.7632 128.886C75.1285 128.886 74.6432 129.059 74.3072 129.404C73.9805 129.749 73.7612 130.207 73.6492 130.776C73.5465 131.336 73.4952 132.022 73.4952 132.834C73.4952 133.674 73.5465 134.379 73.6492 134.948C73.7612 135.517 73.9805 135.975 74.3072 136.32C74.6432 136.665 75.1285 136.838 75.7632 136.838C76.3885 136.838 76.8645 136.665 77.1912 136.32C77.5272 135.975 77.7465 135.517 77.8492 134.948C77.9612 134.379 78.0172 133.674 78.0172 132.834Z" fill="#564E4E"/>
<path d="M0.602 60.114C0.602 59.162 0.816667 58.308 1.246 57.552C1.67533 56.7867 2.25867 56.1893 2.996 55.76C3.74267 55.3307 4.56867 55.116 5.474 55.116C6.538 55.116 7.46667 55.3727 8.26 55.886C9.05333 56.3993 9.632 57.1273 9.996 58.07H8.47C8.19933 57.482 7.80733 57.0293 7.294 56.712C6.79 56.3947 6.18333 56.236 5.474 56.236C4.79267 56.236 4.18133 56.3947 3.64 56.712C3.09867 57.0293 2.674 57.482 2.366 58.07C2.058 58.6487 1.904 59.33 1.904 60.114C1.904 60.8887 2.058 61.57 2.366 62.158C2.674 62.7367 3.09867 63.1847 3.64 63.502C4.18133 63.8193 4.79267 63.978 5.474 63.978C6.18333 63.978 6.79 63.824 7.294 63.516C7.80733 63.1987 8.19933 62.746 8.47 62.158H9.996C9.632 63.0913 9.05333 63.8147 8.26 64.328C7.46667 64.832 6.538 65.084 5.474 65.084C4.56867 65.084 3.74267 64.874 2.996 64.454C2.25867 64.0247 1.67533 63.432 1.246 62.676C0.816667 61.92 0.602 61.066 0.602 60.114ZM11.4165 61.136C11.4165 60.352 11.5751 59.666 11.8925 59.078C12.2098 58.4807 12.6438 58.0187 13.1945 57.692C13.7545 57.3653 14.3751 57.202 15.0565 57.202C15.7285 57.202 16.3118 57.3467 16.8065 57.636C17.3011 57.9253 17.6698 58.2893 17.9125 58.728V57.328H19.2005V65H17.9125V63.572C17.6605 64.02 17.2825 64.3933 16.7785 64.692C16.2838 64.9813 15.7051 65.126 15.0425 65.126C14.3611 65.126 13.7451 64.958 13.1945 64.622C12.6438 64.286 12.2098 63.8147 11.8925 63.208C11.5751 62.6013 11.4165 61.9107 11.4165 61.136ZM17.9125 61.15C17.9125 60.5713 17.7958 60.0673 17.5625 59.638C17.3291 59.2087 17.0118 58.882 16.6105 58.658C16.2185 58.4247 15.7845 58.308 15.3085 58.308C14.8325 58.308 14.3985 58.42 14.0065 58.644C13.6145 58.868 13.3018 59.1947 13.0685 59.624C12.8351 60.0533 12.7185 60.5573 12.7185 61.136C12.7185 61.724 12.8351 62.2373 13.0685 62.676C13.3018 63.1053 13.6145 63.4367 14.0065 63.67C14.3985 63.894 14.8325 64.006 15.3085 64.006C15.7845 64.006 16.2185 63.894 16.6105 63.67C17.0118 63.4367 17.3291 63.1053 17.5625 62.676C17.7958 62.2373 17.9125 61.7287 17.9125 61.15ZM22.9074 58.378V62.9C22.9074 63.2733 22.9867 63.5393 23.1454 63.698C23.3041 63.8473 23.5794 63.922 23.9714 63.922H24.9094V65H23.7614C23.0521 65 22.5201 64.8367 22.1654 64.51C21.8107 64.1833 21.6334 63.6467 21.6334 62.9V58.378H20.6394V57.328H21.6334V55.396H22.9074V57.328H24.9094V58.378H22.9074ZM33.453 60.87C33.453 61.1127 33.439 61.3693 33.411 61.64H27.279C27.3257 62.396 27.5823 62.9887 28.049 63.418C28.525 63.838 29.099 64.048 29.771 64.048C30.3217 64.048 30.779 63.922 31.143 63.67C31.5163 63.4087 31.7777 63.0633 31.927 62.634H33.299C33.0937 63.3713 32.683 63.9733 32.067 64.44C31.451 64.8973 30.6857 65.126 29.771 65.126C29.043 65.126 28.3897 64.9627 27.811 64.636C27.2417 64.3093 26.7937 63.8473 26.467 63.25C26.1403 62.6433 25.977 61.9433 25.977 61.15C25.977 60.3567 26.1357 59.6613 26.453 59.064C26.7703 58.4667 27.2137 58.0093 27.783 57.692C28.3617 57.3653 29.0243 57.202 29.771 57.202C30.499 57.202 31.143 57.3607 31.703 57.678C32.263 57.9953 32.6923 58.434 32.991 58.994C33.299 59.5447 33.453 60.17 33.453 60.87ZM32.137 60.604C32.137 60.1187 32.0297 59.7033 31.815 59.358C31.6003 59.0033 31.3063 58.7373 30.933 58.56C30.569 58.3733 30.163 58.28 29.715 58.28C29.071 58.28 28.5203 58.4853 28.063 58.896C27.615 59.3067 27.3583 59.876 27.293 60.604H32.137ZM38.2986 57.202C38.9613 57.202 39.54 57.3467 40.0346 57.636C40.5386 57.9253 40.912 58.2893 41.1546 58.728V57.328H42.4426V65.168C42.4426 65.868 42.2933 66.4887 41.9946 67.03C41.696 67.5807 41.2666 68.01 40.7066 68.318C40.156 68.626 39.512 68.78 38.7746 68.78C37.7666 68.78 36.9266 68.542 36.2546 68.066C35.5826 67.59 35.186 66.9413 35.0646 66.12H36.3246C36.4646 66.5867 36.754 66.96 37.1926 67.24C37.6313 67.5293 38.1586 67.674 38.7746 67.674C39.4746 67.674 40.044 67.4547 40.4826 67.016C40.9306 66.5773 41.1546 65.9613 41.1546 65.168V63.558C40.9026 64.006 40.5293 64.3793 40.0346 64.678C39.54 64.9767 38.9613 65.126 38.2986 65.126C37.6173 65.126 36.9966 64.958 36.4366 64.622C35.886 64.286 35.452 63.8147 35.1346 63.208C34.8173 62.6013 34.6586 61.9107 34.6586 61.136C34.6586 60.352 34.8173 59.666 35.1346 59.078C35.452 58.4807 35.886 58.0187 36.4366 57.692C36.9966 57.3653 37.6173 57.202 38.2986 57.202ZM41.1546 61.15C41.1546 60.5713 41.038 60.0673 40.8046 59.638C40.5713 59.2087 40.254 58.882 39.8526 58.658C39.4606 58.4247 39.0266 58.308 38.5506 58.308C38.0746 58.308 37.6406 58.42 37.2486 58.644C36.8566 58.868 36.544 59.1947 36.3106 59.624C36.0773 60.0533 35.9606 60.5573 35.9606 61.136C35.9606 61.724 36.0773 62.2373 36.3106 62.676C36.544 63.1053 36.8566 63.4367 37.2486 63.67C37.6406 63.894 38.0746 64.006 38.5506 64.006C39.0266 64.006 39.4606 63.894 39.8526 63.67C40.254 63.4367 40.5713 63.1053 40.8046 62.676C41.038 62.2373 41.1546 61.7287 41.1546 61.15ZM47.9416 65.126C47.2229 65.126 46.5696 64.9627 45.9816 64.636C45.4029 64.3093 44.9456 63.8473 44.6096 63.25C44.2829 62.6433 44.1196 61.9433 44.1196 61.15C44.1196 60.366 44.2876 59.6753 44.6236 59.078C44.9689 58.4713 45.4356 58.0093 46.0236 57.692C46.6116 57.3653 47.2696 57.202 47.9976 57.202C48.7256 57.202 49.3836 57.3653 49.9716 57.692C50.5596 58.0093 51.0216 58.4667 51.3576 59.064C51.7029 59.6613 51.8756 60.3567 51.8756 61.15C51.8756 61.9433 51.6982 62.6433 51.3436 63.25C50.9982 63.8473 50.5269 64.3093 49.9296 64.636C49.3322 64.9627 48.6696 65.126 47.9416 65.126ZM47.9416 64.006C48.3989 64.006 48.8282 63.8987 49.2296 63.684C49.6309 63.4693 49.9529 63.1473 50.1956 62.718C50.4476 62.2887 50.5736 61.766 50.5736 61.15C50.5736 60.534 50.4522 60.0113 50.2096 59.582C49.9669 59.1527 49.6496 58.8353 49.2576 58.63C48.8656 58.4153 48.4409 58.308 47.9836 58.308C47.5169 58.308 47.0876 58.4153 46.6956 58.63C46.3129 58.8353 46.0049 59.1527 45.7716 59.582C45.5382 60.0113 45.4216 60.534 45.4216 61.15C45.4216 61.7753 45.5336 62.3027 45.7576 62.732C45.9909 63.1613 46.2989 63.4833 46.6816 63.698C47.0642 63.9033 47.4842 64.006 47.9416 64.006ZM54.8247 58.574C55.0487 58.1353 55.366 57.7947 55.7767 57.552C56.1967 57.3093 56.7053 57.188 57.3027 57.188V58.504H56.9667C55.5387 58.504 54.8247 59.2787 54.8247 60.828V65H53.5507V57.328H54.8247V58.574ZM65.3813 57.328L60.7613 68.612H59.4453L60.9573 64.916L57.8633 57.328H59.2773L61.6853 63.544L64.0653 57.328H65.3813Z" fill="#C4C4C4"/>
<path d="M8 84L10.7193 88.6023L16 89.7295L12.4 93.7011L12.9443 99L8 96.8523L3.05573 99L3.6 93.7011L0 89.7295L5.28065 88.6023L8 84Z" fill="#FFCB45"/>
<path d="M29 84L31.7193 88.6023L37 89.7295L33.4 93.7011L33.9443 99L29 96.8523L24.0557 99L24.6 93.7011L21 89.7295L26.2807 88.6023L29 84Z" fill="#FFCB45"/>
<path d="M50 84L52.7193 88.6023L58 89.7295L54.4 93.7011L54.9443 99L50 96.8523L45.0557 99L45.6 93.7011L42 89.7295L47.2807 88.6023L50 84Z" fill="#FFCB45"/>
<path d="M71 84L73.7193 88.6023L79 89.7295L75.4 93.7011L75.9443 99L71 96.8523L66.0557 99L66.6 93.7011L63 89.7295L68.2807 88.6023L71 84Z" fill="#FFCB45"/>
<path d="M92 84L94.7193 88.6023L100 89.7295L96.4 93.7011L96.9443 99L92 96.8523L87.0557 99L87.6 93.7011L84 89.7295L89.2807 88.6023L92 84Z" fill="#FFCB45"/>
</svg>
